# xmcd CD database file
#
# Track frame offsets:
#	150
#	13429
#	27307
#	40633
#	55176
#	66840
#	82080
#	94029
#	101950
#	110131
#	118784
#	133956
#	144728
#	158898
#	172598
#	188331
#	202656
#	215174
#	230889
#	243640
#
# Disc length: 3415 seconds
#
# Revision: 0
# Processed by: cddbd v1.5.1PL0 Copyright (c) Steve Scherf et al.
# Submitted via: CDex 1.51
#
DISCID=270d5514
DTITLE=Luis and Julian - 20 Super Éxitos Originales Vol. 2
DYEAR=2003
DGENRE=Ranchero
TTITLE0=El Tequilero
TTITLE1=Misa de Cuerpo Presente
TTITLE2=María La Traidora
TTITLE3=Prefiero Sufrir
TTITLE4=Estamos Secos
TTITLE5=Libre
TTITLE6=Pescadores de Ensenada
TTITLE7=La Enredadera
TTITLE8=Se Están Robando El Marrano
TTITLE9=Pobre Prisionero
TTITLE10=El Corrido de Los Cadetes de Linares
TTITLE11=Niño Perdido
TTITLE12=Carga Maldita
TTITLE13=Todos Eran Valientes
TTITLE14=Condena Dictada
TTITLE15=Pisa Bien
TTITLE16=A Poco No
TTITLE17=Con QuiénPalabras
TTITLE18=El Lucero and La Dama
TTITLE19=Como Flama
EXTD=YEAR: 2003
EXTT0=
EXTT1=
EXTT2=
EXTT3=
EXTT4=
EXTT5=
EXTT6=
EXTT7=
EXTT8=
EXTT9=
EXTT10=
EXTT11=
EXTT12=
EXTT13=
EXTT14=
EXTT15=
EXTT16=
EXTT17=
EXTT18=
EXTT19=
PLAYORDER=
